<?xml version="1.0" encoding="UTF-8" standalone="no"?>
<!-- Created with Inkscape (http://www.inkscape.org/) -->
<svg
   xmlns:dc="http://purl.org/dc/elements/1.1/"
   xmlns:cc="http://web.resource.org/cc/"
   xmlns:rdf="http://www.w3.org/1999/02/22-rdf-syntax-ns#"
   xmlns:svg="http://www.w3.org/2000/svg"
   xmlns="http://www.w3.org/2000/svg"
   xmlns:xlink="http://www.w3.org/1999/xlink"
   xmlns:sodipodi="http://sodipodi.sourceforge.net/DTD/sodipodi-0.dtd"
   xmlns:inkscape="http://www.inkscape.org/namespaces/inkscape"
   width="64px"
   height="64px"
   id="svg1882"
   sodipodi:version="0.32"
   inkscape:version="0.44"
   sodipodi:docbase="E:\"
   sodipodi:docname="OurWord.svg"
   inkscape:export-filename="E:\OurWord.png"
   inkscape:export-xdpi="360"
   inkscape:export-ydpi="360">
  <defs
     id="defs1884">
    <linearGradient
       inkscape:collect="always"
       id="linearGradient2817">
      <stop
         style="stop-color:white;stop-opacity:1;"
         offset="0"
         id="stop2819" />
      <stop
         style="stop-color:white;stop-opacity:0;"
         offset="1"
         id="stop2821" />
    </linearGradient>
    <linearGradient
       id="linearGradient3865">
      <stop
         style="stop-color:#342905;stop-opacity:1;"
         offset="0"
         id="stop3867" />
      <stop
         style="stop-color:#bd9417;stop-opacity:0.92783505;"
         offset="0.8788265"
         id="stop2824" />
      <stop
         style="stop-color:#fefcf7;stop-opacity:1;"
         offset="1"
         id="stop3869" />
    </linearGradient>
    <linearGradient
       id="linearGradient3759">
      <stop
         style="stop-color:white;stop-opacity:1;"
         offset="0"
         id="stop3761" />
      <stop
         style="stop-color:white;stop-opacity:0;"
         offset="1"
         id="stop3763" />
    </linearGradient>
    <linearGradient
       id="linearGradient3745">
      <stop
         style="stop-color:#e5f2ff;stop-opacity:1;"
         offset="0"
         id="stop3747" />
      <stop
         style="stop-color:#001f3f;stop-opacity:0;"
         offset="1"
         id="stop3749" />
    </linearGradient>
    <linearGradient
       id="linearGradient3731">
      <stop
         id="stop3733"
         offset="0"
         style="stop-color:#ebf6ff;stop-opacity:0.86666667;" />
      <stop
         id="stop3735"
         offset="1"
         style="stop-color:#001f40;stop-opacity:1;" />
    </linearGradient>
    <linearGradient
       id="linearGradient4733">
      <stop
         style="stop-color:white;stop-opacity:1;"
         offset="0"
         id="stop4735" />
      <stop
         id="stop3794"
         offset="0.10714286"
         style="stop-color:white;stop-opacity:0.77319586;" />
      <stop
         style="stop-color:white;stop-opacity:0;"
         offset="1"
         id="stop4737" />
    </linearGradient>
    <linearGradient
       id="linearGradient4706">
      <stop
         style="stop-color:#fffdea;stop-opacity:0.13333334;"
         offset="0"
         id="stop4708" />
      <stop
         id="stop2826"
         offset="0.5"
         style="stop-color:#c8af2f;stop-opacity:0.78431374;" />
      <stop
         style="stop-color:#645200;stop-opacity:0.96078432;"
         offset="1"
         id="stop4710" />
    </linearGradient>
    <linearGradient
       id="linearGradient4690">
      <stop
         style="stop-color:white;stop-opacity:1;"
         offset="0"
         id="stop4692" />
      <stop
         style="stop-color:#001f3f;stop-opacity:0"
         offset="1"
         id="stop4694" />
    </linearGradient>
    <linearGradient
       inkscape:collect="always"
       xlink:href="#linearGradient4706"
       id="linearGradient3729"
       x1="-19.064304"
       y1="21.047951"
       x2="-4.6387267"
       y2="1.9959028"
       gradientUnits="userSpaceOnUse"
       gradientTransform="matrix(0.993405,0,0,0.97424,11.8404,16.43952)" />
    <radialGradient
       inkscape:collect="always"
       xlink:href="#linearGradient3745"
       id="radialGradient3757"
       cx="17.989721"
       cy="3.0907125"
       fx="17.989721"
       fy="3.0907125"
       r="25.79797"
       gradientTransform="matrix(-2.128274,1.86609e-2,-2.129455e-3,-0.258394,70.90218,-8.231481e-2)"
       gradientUnits="userSpaceOnUse" />
    <linearGradient
       inkscape:collect="always"
       xlink:href="#linearGradient4706"
       id="linearGradient3775"
       x1="49.743767"
       y1="13.525308"
       x2="32.946129"
       y2="30.40938"
       gradientUnits="userSpaceOnUse"
       gradientTransform="matrix(0.991396,0,0,0.977705,-14.46323,-19.02296)" />
    <radialGradient
       inkscape:collect="always"
       xlink:href="#linearGradient4733"
       id="radialGradient3792"
       cx="3.2672279"
       cy="32.672394"
       fx="3.2672279"
       fy="32.672394"
       r="13.191308"
       gradientTransform="matrix(1.083738,0.957633,-0.18188,0.205831,7.073348,24.93504)"
       gradientUnits="userSpaceOnUse" />
    <linearGradient
       inkscape:collect="always"
       xlink:href="#linearGradient3865"
       id="linearGradient3871"
       x1="38.073673"
       y1="53.348728"
       x2="44.22646"
       y2="45.920555"
       gradientUnits="userSpaceOnUse"
       gradientTransform="translate(6.521031,0.264311)" />
    <linearGradient
       inkscape:collect="always"
       xlink:href="#linearGradient4706"
       id="linearGradient2816"
       gradientUnits="userSpaceOnUse"
       gradientTransform="matrix(0.991396,0,0,0.977705,-14.46323,-19.02296)"
       x1="49.743767"
       y1="13.525308"
       x2="32.946129"
       y2="30.40938" />
    <linearGradient
       inkscape:collect="always"
       xlink:href="#linearGradient4706"
       id="linearGradient2821"
       gradientUnits="userSpaceOnUse"
       gradientTransform="matrix(0.988947,6.963778e-2,-6.867609e-2,0.97529,-10.62128,-21.26339)"
       x1="36.583904"
       y1="1.7924494"
       x2="37.761562"
       y2="36.865425" />
    <radialGradient
       inkscape:collect="always"
       xlink:href="#linearGradient4733"
       id="radialGradient2814"
       gradientUnits="userSpaceOnUse"
       gradientTransform="matrix(1.083738,0.957633,-0.18188,0.205831,35.41015,-8.486214)"
       cx="3.2672279"
       cy="32.672394"
       fx="3.2672279"
       fy="32.672394"
       r="13.191308" />
    <linearGradient
       inkscape:collect="always"
       xlink:href="#linearGradient2817"
       id="linearGradient2823"
       x1="33.373169"
       y1="4.7309599"
       x2="39.059994"
       y2="1.7164812"
       gradientUnits="userSpaceOnUse" />
    <linearGradient
       inkscape:collect="always"
       xlink:href="#linearGradient2817"
       id="linearGradient2829"
       gradientUnits="userSpaceOnUse"
       x1="33.373169"
       y1="4.7309599"
       x2="39.059994"
       y2="1.7164812" />
    <linearGradient
       inkscape:collect="always"
       xlink:href="#linearGradient4706"
       id="linearGradient2849"
       gradientUnits="userSpaceOnUse"
       gradientTransform="matrix(0.988947,6.963778e-2,-6.867609e-2,0.97529,-10.62128,-21.26339)"
       x1="36.583904"
       y1="1.7924494"
       x2="37.761562"
       y2="36.865425" />
    <linearGradient
       inkscape:collect="always"
       xlink:href="#linearGradient2817"
       id="linearGradient2851"
       gradientUnits="userSpaceOnUse"
       x1="33.373169"
       y1="4.7309599"
       x2="39.059994"
       y2="1.7164812" />
  </defs>
  <sodipodi:namedview
     id="base"
     pagecolor="#ffffff"
     bordercolor="#666666"
     borderopacity="1.0"
     inkscape:pageopacity="0.0"
     inkscape:pageshadow="2"
     inkscape:zoom="6.6346464"
     inkscape:cx="33.540061"
     inkscape:cy="55.310453"
     inkscape:current-layer="layer1"
     showgrid="true"
     inkscape:document-units="px"
     inkscape:grid-bbox="true"
     showguides="true"
     inkscape:guide-bbox="true"
     inkscape:window-width="1024"
     inkscape:window-height="742"
     inkscape:window-x="-4"
     inkscape:window-y="-4">
    <sodipodi:guide
       orientation="horizontal"
       position="64.558603"
       id="guide4654" />
  </sodipodi:namedview>
  <metadata
     id="metadata1887">
    <rdf:RDF>
      <cc:Work
         rdf:about="">
        <dc:format>image/svg+xml</dc:format>
        <dc:type
           rdf:resource="http://purl.org/dc/dcmitype/StillImage" />
      </cc:Work>
    </rdf:RDF>
  </metadata>
  <g
     id="layer1"
     inkscape:label="Layer 1"
     inkscape:groupmode="layer">
    <g
       id="g3913"
       transform="matrix(1.097287,-2.388469e-2,3.075589e-2,1.412957,-4.293122,-22.83024)">
      <path
         d="M 56.470056,54.200975 C 56.279558,54.278361 56.201812,54.365743 56.082624,54.451064 C 55.988325,54.545262 55.834376,54.634257 55.70605,54.725343 C 55.542072,54.849404 55.198215,54.941978 54.884384,55.040603 C 54.589574,55.145578 54.232094,55.231056 53.871287,55.31909 C 53.214982,55.429833 52.485002,55.508946 51.778139,55.59597 C 50.959419,55.694668 50.141014,55.792268 49.306359,55.881157 C 48.621962,55.950711 47.92206,55.95149 47.207372,55.958658 C 46.398308,55.931816 45.605234,55.883594 44.801259,55.849375 C 43.757252,55.819363 42.715927,55.785139 41.675605,55.746809 C 40.354225,55.681764 39.011988,55.666458 37.672539,55.666664 C 36.544469,55.66893 35.415715,55.661003 34.28811,55.649384 C 33.383403,55.625445 32.482957,55.605682 31.574678,55.599309 C 30.559289,55.595433 29.545891,55.578231 28.531377,55.566123 C 27.224364,55.561921 25.93009,55.611511 24.645362,55.664252 C 23.562804,55.700581 22.498513,55.755142 21.447051,55.827932 C 20.665107,55.876272 20.000379,55.981299 19.320685,56.083698 C 18.737609,56.21242 18.382123,56.384053 18.031833,56.557038 C 17.493322,56.816638 17.267418,57.099902 17.061667,57.386401 C 16.967617,57.62009 16.795062,57.850447 16.665639,58.082688 C 16.518725,58.290711 16.562412,58.502993 16.554932,58.713719 C 16.559122,58.966498 16.687143,59.209528 16.904985,59.4552 C 17.239618,59.74068 17.73742,60.010796 18.217227,60.28156 C 18.736155,60.521969 19.512244,60.687242 20.372337,60.839338 C 3.666944,57.764749 33.749656,63.311267 17.580154,60.353427 C 18.32837,60.499044 19.130254,60.620723 19.955567,60.73326 C 21.185387,60.918168 22.385209,60.919009 23.742249,60.894457 C 24.920666,60.843275 26.013428,60.722362 27.097981,60.59992 C 28.126213,60.469215 28.840016,60.241453 29.581509,60.024482 C 30.159199,59.769808 30.822415,59.552249 31.647491,59.353074 C 33.477774,59.079174 35.378441,58.834953 37.431766,58.695884 C 39.983333,58.571057 42.363151,58.771557 44.629393,59.066922 C 63.547475,62.953742 36.081484,56.788065 54.138941,60.804988 C 54.775498,60.998945 55.295454,61.218253 55.834941,61.43162 C 56.411963,61.725374 57.309829,61.940344 58.25447,62.152057 C 62.341983,62.884522 51.005441,61.015248 56.810499,61.801943 L 61.386082,62.913874 C 58.206423,62.492039 55.145005,62.001665 52.435811,61.393636 C 51.542398,61.164472 50.741161,60.921152 50.117498,60.635789 C 49.547097,60.432459 49.03508,60.21368 48.312385,60.043345 C 45.103311,59.36751 52.555786,60.785523 51.94114,60.671293 C 32.574733,57.072138 55.273804,61.319377 49.136067,60.164303 C 47.013756,59.856802 44.754359,59.629407 42.288389,59.719809 C 40.321252,59.824348 38.509846,60.062399 36.871187,60.358584 C 36.079601,60.550301 35.457085,60.765137 34.85594,60.999743 C 34.067785,61.237193 33.31259,61.486772 32.250963,61.647512 C 31.094239,61.770359 29.931254,61.891872 28.696733,61.955052 C 27.355467,62.019284 26.054918,62.057421 24.790699,61.889141 C 23.909142,61.793222 23.059435,61.682865 22.297201,61.528756 C 3.609336,58.123037 31.544962,63.181918 14.491068,60.090987 C 13.696829,59.907581 12.961495,59.722111 12.541957,59.461503 C 12.063298,59.181243 11.548714,58.902077 11.265307,58.603698 C 11.085092,58.344905 10.960772,58.086474 10.967131,57.822748 C 10.961567,57.601709 10.931286,57.379918 11.097076,57.162046 C 11.266463,56.934911 11.446571,56.708321 11.567881,56.478872 C 11.825528,56.179975 12.100477,55.88101 12.622152,55.603967 C 12.995447,55.40251 13.369381,55.203395 14.042741,55.056234 C 14.760673,54.934645 15.486808,54.820761 16.32824,54.761451 C 17.418958,54.682538 18.519175,54.628624 19.651281,54.600828 C 20.956752,54.544538 22.26367,54.486344 23.588493,54.466965 C 24.594242,54.473109 25.590411,54.483849 26.594303,54.494928 C 27.501357,54.493031 28.407252,54.499253 29.307091,54.537513 C 30.464587,54.560807 31.624614,54.578287 32.784056,54.590932 C 34.108248,54.579515 35.465569,54.571634 36.773805,54.63091 C 37.801782,54.669304 38.829987,54.713071 39.866839,54.729905 C 40.662193,54.747511 41.425502,54.786133 42.204706,54.831876 C 42.88808,54.855139 43.502968,54.866636 44.178066,54.812554 C 45.001904,54.739761 45.813295,54.652565 46.594046,54.548215 C 47.256346,54.467268 47.926206,54.388683 48.542511,54.285684 C 48.862566,54.205477 49.213603,54.133948 49.469937,54.036428 C 49.713949,53.952217 50.023206,53.880665 50.129877,53.774107 C 50.258924,53.680972 50.399412,53.588877 50.505529,53.493639 C 50.519685,53.459908 50.832036,53.267276 50.565725,53.350211 L 56.470056,54.200975 z "
         id="path3911"
         style="fill:black;fill-opacity:1;fill-rule:nonzero;stroke:none;stroke-width:1px;stroke-linecap:butt;stroke-linejoin:miter;stroke-opacity:1" />
      <path
         d="M 54.359921,52.844459 C 54.169423,52.921845 54.091677,53.009227 53.972489,53.094548 C 53.87819,53.188746 53.724241,53.277741 53.595915,53.368827 C 53.431937,53.492888 53.08808,53.585462 52.774249,53.684087 C 52.479439,53.789062 52.121959,53.87454 51.761152,53.962574 C 51.104847,54.073317 50.374867,54.15243 49.668004,54.239454 C 48.849284,54.338152 48.030879,54.435752 47.196224,54.524641 C 46.511827,54.594195 45.811925,54.594974 45.097237,54.602142 C 44.288173,54.5753 43.495099,54.527078 42.691124,54.492859 C 41.647117,54.462847 40.605792,54.428623 39.56547,54.390293 C 38.24409,54.325248 36.901853,54.309942 35.562404,54.310148 C 34.434334,54.312414 33.30558,54.304487 32.177975,54.292868 C 31.273268,54.268929 30.372822,54.249166 29.464543,54.242793 C 28.449154,54.238917 27.435756,54.221715 26.421242,54.209607 C 25.114229,54.205405 23.819955,54.254995 22.535227,54.307736 C 21.452669,54.344065 20.388378,54.398626 19.336916,54.471416 C 18.554972,54.519756 17.890244,54.624783 17.21055,54.727182 C 16.627474,54.855904 16.271988,55.027537 15.921698,55.200522 C 15.383187,55.460122 15.157283,55.743386 14.951532,56.029885 C 14.857482,56.263574 14.684927,56.493931 14.555504,56.726172 C 14.40859,56.934195 14.452277,57.146477 14.444797,57.357203 C 14.448987,57.609982 14.577008,57.853012 14.79485,58.098684 C 15.129483,58.384164 15.627285,58.65428 16.107092,58.925044 C 16.62602,59.165453 17.402109,59.330726 18.262202,59.482822 C 1.5568085,56.408233 31.639521,61.954751 15.470019,58.996911 C 16.218235,59.142528 17.020119,59.264207 17.845432,59.376744 C 19.075252,59.561652 20.275074,59.562493 21.632114,59.537941 C 22.810531,59.486759 23.903293,59.365846 24.987846,59.243404 C 26.016078,59.112699 26.729881,58.884937 27.471374,58.667966 C 28.049064,58.413292 28.71228,58.195733 29.537356,57.996558 C 31.367639,57.722658 33.268306,57.478437 35.321631,57.339368 C 37.873198,57.214541 40.253016,57.415041 42.519258,57.710406 C 61.43734,61.597226 33.971349,55.431549 52.028806,59.448472 C 52.665363,59.642429 53.185319,59.861737 53.724806,60.075104 C 54.301828,60.368858 55.199694,60.583828 56.144335,60.795541 C 60.231848,61.528006 48.895306,59.658732 54.700364,60.445427 L 59.275947,61.557358 C 56.096288,61.135523 53.03487,60.645149 50.325676,60.03712 C 49.432263,59.807956 48.631026,59.564636 48.007363,59.279273 C 47.436962,59.075943 46.924945,58.857164 46.20225,58.686829 C 42.993176,58.010994 50.445651,59.429007 49.831005,59.314777 C 30.464598,55.715622 53.163669,59.962861 47.025932,58.807787 C 44.903621,58.500286 42.644224,58.272891 40.178254,58.363293 C 38.211117,58.467832 36.399711,58.705883 34.761052,59.002068 C 33.969466,59.193785 33.34695,59.408621 32.745805,59.643227 C 31.95765,59.880677 31.202455,60.130256 30.140828,60.290996 C 28.984104,60.413843 27.821119,60.535356 26.586598,60.598536 C 25.245332,60.662768 23.944783,60.700905 22.680564,60.532625 C 21.799007,60.436706 20.9493,60.326349 20.187066,60.17224 C 1.4992005,56.766521 29.434827,61.825402 12.380933,58.734471 C 11.586694,58.551065 10.85136,58.365595 10.431822,58.104987 C 9.9531625,57.824727 9.4385785,57.545561 9.1551715,57.247182 C 8.9749565,56.988389 8.8506365,56.729958 8.8569955,56.466232 C 8.8514315,56.245193 8.8211505,56.023402 8.9869405,55.80553 C 9.1563275,55.578395 9.3364355,55.351805 9.4577455,55.122356 C 9.7153925,54.823459 9.9903415,54.524494 10.512017,54.247451 C 10.885312,54.045994 11.259246,53.846879 11.932606,53.699718 C 12.650538,53.578129 13.376673,53.464245 14.218105,53.404935 C 15.308823,53.326022 16.40904,53.272108 17.541146,53.244312 C 18.846617,53.188022 20.153535,53.129828 21.478358,53.110449 C 22.484107,53.116593 23.480276,53.127333 24.484168,53.138412 C 25.391222,53.136515 26.297117,53.142737 27.196956,53.180997 C 28.354452,53.204291 29.514479,53.221771 30.673921,53.234416 C 31.998113,53.222999 33.355434,53.215118 34.66367,53.274394 C 35.691647,53.312788 36.719852,53.356555 37.756704,53.373389 C 38.552058,53.390995 39.315367,53.429617 40.094571,53.47536 C 40.777945,53.498623 41.392833,53.51012 42.067931,53.456038 C 42.891769,53.383245 43.70316,53.296049 44.483911,53.191699 C 45.146211,53.110752 45.816071,53.032167 46.432376,52.929168 C 46.752431,52.848961 47.103468,52.777432 47.359802,52.679912 C 47.603814,52.595701 47.913071,52.524149 48.019742,52.417591 C 48.148789,52.324456 48.289277,52.232361 48.395394,52.137123 C 48.40955,52.103392 48.721901,51.91076 48.45559,51.993695 L 54.359921,52.844459 z "
         id="path3909"
         style="fill:#b5b5ff;fill-opacity:1;fill-rule:nonzero;stroke:none;stroke-width:1px;stroke-linecap:butt;stroke-linejoin:miter;stroke-opacity:1" />
      <path
         d="M 55.50865,53.514801 C 55.318152,53.592187 55.240406,53.679569 55.121218,53.76489 C 55.026919,53.859088 54.87297,53.948083 54.744644,54.039169 C 54.580666,54.16323 54.236809,54.255804 53.922978,54.354429 C 53.628168,54.459404 53.270688,54.544882 52.909881,54.632916 C 52.253576,54.743659 51.523596,54.822772 50.816733,54.909796 C 49.998013,55.008494 49.179608,55.106094 48.344953,55.194983 C 47.660556,55.264537 46.960654,55.265316 46.245966,55.272484 C 45.436902,55.245642 44.643828,55.19742 43.839853,55.163201 C 42.795846,55.133189 41.754521,55.098965 40.714199,55.060635 C 39.392819,54.99559 38.050582,54.980284 36.711133,54.98049 C 35.583063,54.982756 34.454309,54.974829 33.326704,54.96321 C 32.421997,54.939271 31.521551,54.919508 30.613272,54.913135 C 29.597883,54.909259 28.584485,54.892057 27.569971,54.879949 C 26.262958,54.875747 24.968684,54.925337 23.683956,54.978078 C 22.601398,55.014407 21.537107,55.068968 20.485645,55.141758 C 19.703701,55.190098 19.038973,55.295125 18.359279,55.397524 C 17.776203,55.526246 17.420717,55.697879 17.070427,55.870864 C 16.531916,56.130464 16.306012,56.413728 16.100261,56.700227 C 16.006211,56.933916 15.833656,57.164273 15.704233,57.396514 C 15.557319,57.604537 15.601006,57.816819 15.593526,58.027545 C 15.597716,58.280324 15.725737,58.523354 15.943579,58.769026 C 16.278212,59.054506 16.776014,59.324622 17.255821,59.595386 C 17.774749,59.835795 18.550838,60.001068 19.410931,60.153164 C 2.7055379,57.078575 32.78825,62.625093 16.618748,59.667253 C 17.366964,59.81287 18.168848,59.934549 18.994161,60.047086 C 20.223981,60.231994 21.423803,60.232835 22.780843,60.208283 C 23.95926,60.157101 25.052022,60.036188 26.136575,59.913746 C 27.164807,59.783041 27.87861,59.555279 28.620103,59.338308 C 29.197793,59.083634 29.861009,58.866075 30.686085,58.6669 C 32.516368,58.393 34.417035,58.148779 36.47036,58.00971 C 39.021927,57.884883 41.401745,58.085383 43.667987,58.380748 C 62.586069,62.267568 35.120078,56.101891 53.177535,60.118814 C 53.814092,60.312771 54.334048,60.532079 54.873535,60.745446 C 55.450557,61.0392 56.348423,61.25417 57.293064,61.465883 C 61.380577,62.198348 50.044035,60.329074 55.849093,61.115769 L 60.424676,62.2277 C 57.245017,61.805865 54.183599,61.315491 51.474405,60.707462 C 50.580992,60.478298 49.779755,60.234978 49.156092,59.949615 C 48.585691,59.746285 48.073674,59.527506 47.350979,59.357171 C 44.141905,58.681336 51.59438,60.099349 50.979734,59.985119 C 31.613327,56.385964 54.312398,60.633203 48.174661,59.478129 C 46.05235,59.170628 43.792953,58.943233 41.326983,59.033635 C 39.359846,59.138174 37.54844,59.376225 35.909781,59.67241 C 35.118195,59.864127 34.495679,60.078963 33.894534,60.313569 C 33.106379,60.551019 32.351184,60.800598 31.289557,60.961338 C 30.132833,61.084185 28.969848,61.205698 27.735327,61.268878 C 26.394061,61.33311 25.093512,61.371247 23.829293,61.202967 C 22.947736,61.107048 22.098029,60.996691 21.335795,60.842582 C 2.6479296,57.436863 30.583556,62.495744 13.529662,59.404813 C 12.735423,59.221407 12.000089,59.035937 11.580551,58.775329 C 11.101892,58.495069 10.587308,58.215903 10.303901,57.917524 C 10.123686,57.658731 9.9993655,57.4003 10.005725,57.136574 C 10.000161,56.915535 9.9698794,56.693744 10.13567,56.475872 C 10.305057,56.248737 10.485165,56.022147 10.606475,55.792698 C 10.864122,55.493801 11.139071,55.194836 11.660746,54.917793 C 12.034041,54.716336 12.407975,54.517221 13.081335,54.37006 C 13.799267,54.248471 14.525402,54.134587 15.366834,54.075277 C 16.457552,53.996364 17.557769,53.94245 18.689875,53.914654 C 19.995346,53.858364 21.302264,53.80017 22.627087,53.780791 C 23.632836,53.786935 24.629005,53.797675 25.632897,53.808754 C 26.539951,53.806857 27.445846,53.813079 28.345685,53.851339 C 29.503181,53.874633 30.663208,53.892113 31.82265,53.904758 C 33.146842,53.893341 34.504163,53.88546 35.812399,53.944736 C 36.840376,53.98313 37.868581,54.026897 38.905433,54.043731 C 39.700787,54.061337 40.464096,54.099959 41.2433,54.145702 C 41.926674,54.168965 42.541562,54.180462 43.21666,54.12638 C 44.040498,54.053587 44.851889,53.966391 45.63264,53.862041 C 46.29494,53.781094 46.9648,53.702509 47.581105,53.59951 C 47.90116,53.519303 48.252197,53.447774 48.508531,53.350254 C 48.752543,53.266043 49.0618,53.194491 49.168471,53.087933 C 49.297518,52.994798 49.438006,52.902703 49.544123,52.807465 C 49.558279,52.773734 49.87063,52.581102 49.604319,52.664037 L 55.50865,53.514801 z "
         id="path3907"
         style="fill:#1a1aff;fill-opacity:1;fill-rule:nonzero;stroke:none;stroke-width:1px;stroke-linecap:butt;stroke-linejoin:miter;stroke-opacity:1" />
    </g>
    <path
       style="fill:#d4af37;fill-opacity:1;fill-rule:evenodd;stroke:none;stroke-width:1px;stroke-linecap:butt;stroke-linejoin:miter;stroke-opacity:1"
       d="M 28.345751,39.353607 L 37.400025,31.314056 C 51.951836,40.245769 55.824218,48.197774 61.046202,61.707508 C 52.440993,57.324367 45.476147,56.13371 39.819563,53.562026 C 35.561186,49.716018 32.786888,42.957842 28.345751,39.353607 z "
       id="path3765"
       sodipodi:nodetypes="ccccc" />
    <path
       style="opacity:0.62222224;fill:url(#linearGradient3871);fill-opacity:1;fill-rule:evenodd;stroke:none;stroke-width:1px;stroke-linecap:butt;stroke-linejoin:miter;stroke-opacity:1"
       d="M 29.299549,40.039551 L 38.353823,32 C 52.905634,40.931713 56.92874,48.883718 62,62.393452 C 53.394791,58.010311 46.429945,56.819654 40.773361,54.24797 C 36.514984,50.401962 33.740686,43.643786 29.299549,40.039551 z "
       id="path3863"
       sodipodi:nodetypes="ccccc" />
    <path
       style="fill:none;fill-opacity:0.75;fill-rule:evenodd;stroke:white;stroke-width:1.01632714px;stroke-linecap:butt;stroke-linejoin:miter;stroke-opacity:1"
       d="M 30.082694,40.491836 C 34.963768,38.790708 37.94975,36.119774 39.269642,32.779699"
       id="path3777"
       sodipodi:nodetypes="cc" />
    <path
       style="fill:#0f0f0f;fill-opacity:1;stroke:none;stroke-width:0.2;stroke-miterlimit:4;stroke-dasharray:none;stroke-opacity:1"
       d="M 38.96127,32.520242 C 42.253031,32.869026 48.326217,39.155455 52.264882,44.542317 C 56.275704,50.027866 60.902846,58.123497 62.910583,62.618931 C 62.342222,62.768037 61.455496,62.060448 60.887134,62.209554 C 59.545951,58.310024 57.896983,56.642525 55.864328,51.960955 C 53.827071,47.268784 52.142327,45.933017 49.657271,43.033178 C 46.10309,39.448653 41.703872,37.045371 37.643312,34.079236 C 38.283597,33.911261 37.868814,33.441837 38.96127,32.520242 z "
       id="path3748"
       sodipodi:nodetypes="czcczzcc" />
    <path
       style="fill:none;fill-rule:evenodd;stroke:white;stroke-width:1.04460299px;stroke-linecap:butt;stroke-linejoin:miter;stroke-opacity:1"
       d="M 37.938379,34.695876 C 48.928054,40.916502 52.994502,47.272382 58.536122,58.681514 C 51.133473,53.395741 44.886607,54.790893 41.401872,52.55872 C 36.691544,49.541484 37.360824,43.936457 32.501982,39.800806"
       id="path4652"
       sodipodi:nodetypes="ccsc" />
    <path
       style="fill:#0f0f0f;fill-opacity:1;stroke:none;stroke-width:0.2;stroke-miterlimit:4;stroke-dasharray:none;stroke-opacity:1"
       d="M 32.426172,40.020968 C 33.362832,40.87047 33.709305,41.931116 34.710763,43.434796 C 36.370051,46.332086 37.296654,49.600128 39.864152,51.863413 C 42.401577,53.968772 45.088266,54.553092 48.231279,55.229371 C 53.591456,56.154605 56.395364,56.453074 60.029068,59.641616 C 60.908933,60.264879 62.409587,62.159773 62.725152,62.811838 C 62.207896,62.947538 61.607815,62.8643 61.090561,62.999999 C 57.172239,59.57334 52.158383,57.750625 47.139961,56.653217 C 43.942809,55.884239 40.550168,55.369884 37.820924,53.390184 C 35.654393,51.761372 35.597834,49.157848 33.993995,46.610159 C 33.118002,44.014168 32.095232,42.667795 30.873884,40.962335 C 30.090717,40.553824 30.59759,41.051662 30.97598,40.885691 C 31.308653,40.798414 32.093498,40.108243 32.426172,40.020968 z "
       id="path3746"
       sodipodi:nodetypes="ccccccccccccc" />
    <path
       style="fill:#0f0f0f;fill-opacity:1;stroke:none;stroke-width:0.2;stroke-miterlimit:4;stroke-dasharray:none;stroke-opacity:1"
       d="M 36.609211,36.690723 C 40.083957,38.150131 43.645277,41.67864 44.72492,43.588886 C 46.525468,45.541112 47.718992,47.975087 49.181381,50.188577 C 50.564496,52.294687 51.969006,54.387864 53.245801,56.565556 C 52.80882,56.215069 52.317183,55.917836 51.914144,55.534274 C 50.069371,52.396508 47.944285,49.447933 46.071082,46.328748 C 45.045014,44.573908 43.762649,43.221486 42.269671,41.864481 C 36.961013,36.527537 40.287125,40.105369 36.609211,36.690723 z "
       id="path3760"
       sodipodi:nodetypes="cccccccc" />
    <path
       style="fill:#001f3f;fill-opacity:1;fill-rule:evenodd;stroke:none;stroke-width:1.00000024px;stroke-linecap:butt;stroke-linejoin:miter;stroke-opacity:1"
       d="M -7.9912736,4.2838387 C -7.9912736,4.2838387 5.8012796,-9.2396607 5.8012796,-9.2396607 C 5.8012796,-9.2396607 26.694117,17.169463 41.224712,28.242988 C 36.076233,37.967514 32.764125,39.402979 23.32943,42.78628 C 15.955062,27.233568 -7.9912736,4.2838387 -7.9912736,4.2838387 z "
       id="path1950"
       sodipodi:nodetypes="ccccc" />
    <path
       transform="matrix(0.681126,0.732166,-0.733022,0.680205,0,0)"
       style="fill:url(#radialGradient3757);fill-opacity:1.0;stroke:none;stroke-width:0.2;stroke-miterlimit:4;stroke-opacity:1;opacity:0.5"
       d="M -2.0614911,-9.9996139 L 46,-9.511405 C 51.995604,-1.5483762 47.922749,3.9641631 46,10.000001 L -2.162135,8.3296228 C -2.370037,1.7293594 -2.7378481,-2.5832687 -2.0614911,-9.9996139 z "
       id="rect4702"
       sodipodi:nodetypes="ccccc" />
    <path
       style="fill:none;fill-rule:evenodd;stroke:white;stroke-width:1px;stroke-linecap:butt;stroke-linejoin:miter;stroke-opacity:1"
       d="M -6.8204489,3.3865337 C 0.42686573,9.3489807 19.419433,30.835563 24.159601,41.042394 C 26.448309,40.118639 29.255968,39.283179 33.037835,36.24205 C 36.812365,33.206823 37.759171,30.182409 38.802993,28.760598 C 28.407461,20.688581 11.747168,0.72827866 4.8678311,-7.7356608"
       id="path4678"
       sodipodi:nodetypes="ccscc" />
    <path
       style="fill:#fed48b;fill-opacity:1;fill-rule:evenodd;stroke:#704504;stroke-width:0.99999946px;stroke-linecap:butt;stroke-linejoin:miter;stroke-opacity:1"
       d="M -23.485691,34.144851 C -23.485691,34.144851 -11.077517,6.1529246 -11.077517,6.1529246 C -11.077517,6.1529246 6.1861501,15.275768 12.764961,20.419521 C 17.928875,24.457013 22.374066,32.341657 19.895224,39.303693 C 16.198314,32.707159 6.7140418,28.855259 1.7197945,27.583997 C 0.1285675,28.201156 -5.6510873,34.928106 -7.474083,41.5194 C -13.843466,38.570733 -23.485691,34.144851 -23.485691,34.144851 z "
       id="path4719"
       sodipodi:nodetypes="ccscccc" />
    <path
       style="fill:url(#linearGradient3729);fill-opacity:1;fill-rule:evenodd;stroke:none;stroke-width:0.99999946px;stroke-linecap:butt;stroke-linejoin:miter;stroke-opacity:1;opacity:0.58888889"
       d="M -23.345903,33.529183 C -23.345903,33.529183 -11.019567,6.7800589 -11.019567,6.7800589 C -11.019567,6.7800589 7.2150398,16.209255 13.562049,21.452174 C 17.750259,24.911827 22.083798,34.858089 19.755776,39.240923 C 15.340888,34.009264 6.8644772,28.572404 1.9031694,27.624334 C 0.1003191,28.846801 -3.2493442,32.596208 -7.5643829,41.201265 C -13.891757,38.328557 -23.345903,33.529183 -23.345903,33.529183 z "
       id="path2836"
       sodipodi:nodetypes="ccscccc" />
    <path
       style="opacity:0.8;fill:#b76d43;fill-opacity:1;fill-rule:evenodd;stroke:#600;stroke-width:1.32;stroke-linecap:butt;stroke-linejoin:miter;stroke-miterlimit:4;stroke-dasharray:none;stroke-opacity:1"
       d="M 1.7543048,27.839277 C -0.9475617,29.594901 -5.5376842,34.862008 -7.1127788,41.779312 C 5.3820721,47.235219 16.555015,50.217333 20.150926,45.339996 C 22.848063,41.681717 17.96801,31.830944 1.7543048,27.839277 z "
       id="path4741"
       sodipodi:nodetypes="ccsc" />
    <path
       style="opacity:0.58;fill:url(#radialGradient3792);fill-opacity:1.0;fill-rule:evenodd;stroke:white;stroke-width:1.117;stroke-linecap:butt;stroke-linejoin:miter;stroke-miterlimit:4;stroke-dasharray:none;stroke-opacity:1"
       d="M 1.5599402,29.346802 C -1.0695432,31.036406 -3.9675532,34.443341 -5.500451,41.100517 C 0.78461743,44.825889 13.717515,48.976586 17.95668,45.638788 C 23.521353,41.257322 11.471225,31.168654 1.5599402,29.346802 z "
       id="path4731"
       sodipodi:nodetypes="ccsc" />
    <path
       style="opacity:0.48333333;fill:white;fill-opacity:1;fill-rule:evenodd;stroke:white;stroke-width:1.04280567px;stroke-linecap:butt;stroke-linejoin:miter;stroke-opacity:1"
       d="M 0.99690352,29.521403 C -7.67692,44.358249 -7.67692,44.358249 -7.67692,44.358249 C -1.170142,41.850995 3.3600403,38.033434 0.99690352,29.521403 z "
       id="path4745"
       sodipodi:nodetypes="ccc" />
    <g
       id="g2841"
       transform="translate(4,6)">
      <path
         sodipodi:nodetypes="ccccsc"
         id="path4729"
         d="M 7.4400751,-8.8615399 C 7.4400751,-8.8615399 30.17181,-21.401417 30.17181,-21.401417 C 30.17181,-21.401417 30.467813,-23.213626 32.979538,-16.49548 C 22.217642,-8.7847636 35.044081,11.596045 37.739156,17.049785 C 32.067989,20.023459 23.040309,18.781082 18.75817,13.183999 C 14.784595,7.9902326 7.4400751,-8.8615399 7.4400751,-8.8615399 z "
         style="fill:#fed48b;fill-opacity:1;fill-rule:evenodd;stroke:#6e4304;stroke-width:1;stroke-linecap:butt;stroke-linejoin:miter;stroke-miterlimit:4;stroke-dasharray:none;stroke-opacity:1" />
      <g
         id="g2831">
        <path
           style="opacity:0.53333285;fill:url(#linearGradient2849);fill-opacity:1;fill-rule:evenodd;stroke:none;stroke-width:0.84928197px;stroke-linecap:butt;stroke-linejoin:miter;stroke-opacity:1"
           d="M 7.5589515,-8.5261836 C 7.5589515,-8.5261836 30.081541,-20.76553 30.081541,-20.76553 C 30.081541,-20.76553 36.928072,-6.2238167 39.424462,0.34741372 C 43.478495,11.018822 38.154797,19.814035 30.711427,18.556502 C 25.472602,17.671418 20.832136,15.606547 19.113312,13.079939 C 14.07574,5.6748976 7.5589515,-8.5261836 7.5589515,-8.5261836 z "
           id="path3767"
           sodipodi:nodetypes="ccsssc" />
        <g
           id="g2825"
           transform="translate(-1.382721,-1.808687)">
          <path
             sodipodi:nodetypes="cccc"
             id="path4747"
             d="M 29.167465,-13.3572 C 20.523274,-1.6099045 39.486429,17.821822 40.842363,19.061845 L 45.619236,18.970794 C 43.113337,9.4175888 40.221361,-2.4752583 29.167465,-13.3572 z "
             style="fill:#b76d43;fill-opacity:1;fill-rule:evenodd;stroke:#650000;stroke-width:1.0710001;stroke-linecap:butt;stroke-linejoin:miter;stroke-miterlimit:4;stroke-dasharray:none;stroke-opacity:1" />
          <path
             sodipodi:nodetypes="cccc"
             id="path4749"
             d="M 44.103281,17.844379 C 41.499677,9.7758548 40.118353,-2.1404097 29.284221,-11.246147 C 24.517796,-0.98217855 39.899172,17.005137 40.990343,18.296484 L 44.103281,17.844379 z "
             style="opacity:0.57999998;fill:url(#linearGradient2851);fill-opacity:1;fill-rule:evenodd;stroke:white;stroke-width:1.06700015;stroke-linecap:butt;stroke-linejoin:miter;stroke-miterlimit:4;stroke-dasharray:none;stroke-opacity:1" />
        </g>
      </g>
    </g>
    <path
       style="fill:white;fill-opacity:1;stroke:none;stroke-width:0.2;stroke-miterlimit:4;stroke-dasharray:none;stroke-opacity:1"
       d="M 36.95014,39.117964 C 40.164817,40.387258 42.118031,42.338153 43.116868,43.999557 C 44.782653,45.69747 45.886847,47.814378 47.239783,49.739523 C 48.519379,51.571275 49.818767,53.391778 51,55.285788 C 50.595724,54.980958 50.140885,54.722444 49.768012,54.388849 C 48.061311,51.659832 46.095278,49.09536 44.362276,46.382503 C 43.413004,44.856262 42.226618,43.680018 40.845383,42.499785 C 35.934055,37.858071 40.35278,42.087791 36.95014,39.117964 z "
       id="path3790"
       sodipodi:nodetypes="cccccccc" />
  </g>
</svg>
